<svg xmlns="http://www.w3.org/2000/svg" version="1.1" xmlns:xlink="http://www.w3.org/1999/xlink" xmlns:svgjs="http://svgjs.dev/svgjs" width="2000" height="368" viewBox="0 0 2000 368"><g transform="matrix(1,0,0,1,-1.2121212121212466,-0.22610957431049883)"><svg viewBox="0 0 396 73" data-background-color="#000000" preserveAspectRatio="xMidYMid meet" height="368" width="2000" xmlns="http://www.w3.org/2000/svg" xmlns:xlink="http://www.w3.org/1999/xlink"><g id="tight-bounds" transform="matrix(1,0,0,1,0.2400000000000091,0.04485325794746586)"><svg viewBox="0 0 395.52 72.91029348410505" height="72.91029348410505" width="395.52"><g><svg viewBox="0 0 521.4490748346445 96.12410265778973" height="72.91029348410505" width="395.52"><g transform="matrix(1,0,0,1,125.92907483464451,16.49915190576971)"><svg viewBox="0 0 395.52 63.12579884625031" height="63.12579884625031" width="395.52"><g id="textblocktransform"><svg viewBox="0 0 395.52 63.12579884625031" height="63.12579884625031" width="395.52" id="textblock"><g><svg viewBox="0 0 395.52 63.12579884625031" height="63.12579884625031" width="395.52"><g transform="matrix(1,0,0,1,0,0)"><svg width="395.52" viewBox="4.64 -36.23 291.99 46.61" height="63.12579884625031" data-palette-color="#ffffff"><path d="M8.74-22.95L4.64-22.95 4.64-26.42 8.79-26.42 10.21-33.3 13.13-33.3 13.13-26.42 23.68-26.42 23.68-22.95 13.13-22.95 13.13-7.03Q13.13-5.1 14.17-4.17 15.21-3.25 17.58-3.25L17.58-3.25Q20.85-3.25 24.83-4.08L24.83-4.08 24.83-0.73Q20.7 0.39 16.65 0.39L16.65 0.39Q12.7 0.39 10.72-1.28 8.74-2.95 8.74-6.57L8.74-6.57 8.74-22.95ZM59.49-26.42L54.86 0 49.88 0 46.38-11.5 44.99-16.43 44.04-13.04 39.94 0 34.98 0 30.52-26.42 34.86-26.42 37.13-11.6Q37.94-5.15 37.94-3.64L37.94-3.64Q38.89-7.54 39.35-8.86L39.35-8.86 42.65-19.21 47.36-19.21 50.53-8.84Q51.32-6.27 51.88-3.64L51.88-3.64Q51.88-4.37 51.98-5.47 52.07-6.57 52.22-7.73 52.37-8.89 52.51-9.94 52.66-10.99 52.73-11.6L52.73-11.6 55.2-26.42 59.49-26.42ZM78.19-26.42L78.19-3.47 87.47-3.47 87.47 0 63.5 0 63.5-3.47 73.8-3.47 73.8-22.95 66.01-22.95 66.01-26.42 78.19-26.42ZM78.19-31.54L73.31-31.54 73.31-36.23 78.19-36.23 78.19-31.54ZM116.08 0L93.6 0 93.6-3.34 110.22-23.02 94.57-23.02 94.57-26.42 115.18-26.42 115.18-23.07 98.53-3.39 116.08-3.39 116.08 0ZM146.08 0L123.6 0 123.6-3.34 140.22-23.02 124.57-23.02 124.57-26.42 145.18-26.42 145.18-23.07 128.53-3.39 146.08-3.39 146.08 0ZM157.14 10.38L157.14 10.38Q155.33 10.38 154.11 10.11L154.11 10.11 154.11 6.81Q155.04 6.96 156.16 6.96L156.16 6.96Q158.09 6.96 159.79 5.52 161.49 4.08 162.66 0.93L162.66 0.93 163.1-0.27 151.62-26.42 156.31-26.42 162.76-10.74Q164.98-5.27 165.15-4.54L165.15-4.54 166.15-7.23 173.72-26.42 178.36-26.42 167.22 0Q165.05 5.74 162.72 8.06 160.39 10.38 157.14 10.38ZM205.89-7.54L205.89-7.54Q205.89-3.78 203.05-1.65 200.2 0.49 195.18 0.49L195.18 0.49Q190.15 0.49 187.52-1.09 184.9-2.66 184.09-6.05L184.09-6.05 187.97-6.81Q188.44-4.71 189.96-3.75 191.49-2.78 195.18-2.78L195.18-2.78Q201.77-2.78 201.77-6.96L201.77-6.96Q201.77-8.52 200.57-9.48 199.37-10.45 196.91-11.06L196.91-11.06Q190.46-12.65 188.73-13.55 187-14.45 186.07-15.81 185.14-17.16 185.14-19.19L185.14-19.19Q185.14-22.78 187.73-24.8 190.32-26.83 195.22-26.83L195.22-26.83Q199.52-26.83 202.08-25.21 204.65-23.58 205.28-20.48L205.28-20.48 201.33-20Q201.06-21.75 199.59-22.66 198.13-23.56 195.22-23.56L195.22-23.56Q189.24-23.56 189.24-19.87L189.24-19.87Q189.24-18.41 190.26-17.53 191.27-16.65 193.52-16.11L193.52-16.11 196.42-15.36Q200.4-14.38 202.15-13.43 203.89-12.48 204.89-11.05 205.89-9.62 205.89-7.54ZM214.53 0L214.53-36.23 218.95-36.23 218.95-26.71Q218.95-25.27 218.73-21.9L218.73-21.9 218.81-21.9Q221.37-26.9 227.08-26.9L227.08-26.9Q235.63-26.9 235.63-17.6L235.63-17.6 235.63 0 231.21 0 231.21-16.97Q231.21-20.29 229.93-21.9 228.64-23.51 225.84-23.51L225.84-23.51Q222.81-23.51 220.87-21.3 218.93-19.09 218.93-15.31L218.93-15.31 218.93 0 214.53 0ZM266.8-13.23L266.8-13.23Q266.8-6.57 263.74-3.04 260.67 0.49 254.89 0.49L254.89 0.49Q249.22 0.49 246.21-3.08 243.19-6.64 243.19-13.23L243.19-13.23Q243.19-20.04 246.28-23.47 249.37-26.9 255.03-26.9L255.03-26.9Q260.99-26.9 263.9-23.51 266.8-20.12 266.8-13.23ZM262.19-13.23L262.19-13.23Q262.19-18.48 260.51-21.07 258.84-23.66 255.11-23.66L255.11-23.66Q251.32-23.66 249.56-21.02 247.81-18.38 247.81-13.23L247.81-13.23Q247.81-8.11 249.56-5.43 251.32-2.76 254.84-2.76L254.84-2.76Q258.72-2.76 260.45-5.37 262.19-7.98 262.19-13.23ZM296.63-13.33L296.63-13.33Q296.63 0.49 287.06 0.49L287.06 0.49Q281.06 0.49 278.98-4L278.98-4 278.86-4Q278.96-3.81 278.96 0.05L278.96 0.05 278.96 10.38 274.54 10.38 274.54-20.95Q274.54-25.1 274.39-26.42L274.39-26.42 278.66-26.42Q278.69-26.32 278.74-25.7 278.79-25.07 278.85-23.86 278.91-22.66 278.91-22.07L278.91-22.07 279.01-22.07Q280.23-24.63 282.12-25.79 284.01-26.95 287.06-26.95L287.06-26.95Q291.9-26.95 294.26-23.62 296.63-20.29 296.63-13.33ZM292.09-13.33L292.09-13.33Q292.09-18.85 290.6-21.2 289.11-23.56 285.92-23.56L285.92-23.56Q282.23-23.56 280.59-20.89 278.96-18.21 278.96-12.79L278.96-12.79Q278.96-7.59 280.59-5.18 282.23-2.76 285.87-2.76L285.87-2.76Q289.11-2.76 290.6-5.22 292.09-7.69 292.09-13.33Z" opacity="1" transform="matrix(1,0,0,1,0,0)" fill="#ffffff" class="wordmark-text-0" data-fill-palette-color="primary" id="text-0"></path></svg></g></svg></g></svg></g></svg></g><g><svg viewBox="0 0 96.12410265778973 96.12410265778973" height="96.12410265778973" width="96.12410265778973"><g><svg></svg></g><g id="icon-0"><svg viewBox="0 0 96.12410265778973 96.12410265778973" height="96.12410265778973" width="96.12410265778973"><g><path d="M0 48.062c0-26.544 21.518-48.062 48.062-48.062 26.544 0 48.062 21.518 48.062 48.062 0 26.544-21.518 48.062-48.062 48.062-26.544 0-48.062-21.518-48.062-48.062zM48.062 90.431c23.4 0 42.369-18.969 42.369-42.369 0-23.4-18.969-42.369-42.369-42.369-23.4 0-42.369 18.969-42.369 42.369 0 23.4 18.969 42.369 42.369 42.369z" data-fill-palette-color="tertiary" fill="#ffffff" stroke="transparent"></path></g><g transform="matrix(1,0,0,1,33.9389488778976,23.719700669105627)"><svg viewBox="0 0 28.24620490199454 48.68470131957848" height="48.68470131957848" width="28.24620490199454"><g><svg xmlns="http://www.w3.org/2000/svg" xmlns:xlink="http://www.w3.org/1999/xlink" version="1.1" x="0" y="0" viewBox="21.679106830508616 1 56.85827385947762 98" enable-background="new 0 0 100 100" xml:space="preserve" height="48.68470131957848" width="28.24620490199454" class="icon-dxe-0" data-fill-palette-color="accent" id="dxe-0"><g fill="#ffffff" data-fill-palette-color="accent"><path fill-rule="evenodd" clip-rule="evenodd" d="M30.545 28.822C29.38 36.039 30.875 43.672 37.045 47.863 30.758 19.81 45.756 8.664 59.646 1 43.466 24.046 76.542 24.644 78.423 51.13 80.028 73.71 64.507 91.317 46.639 99 46.845 76.175 24.089 73.067 21.801 54.397 20.905 47.094 25.062 33.766 30.545 28.822" fill="#ffffff" data-fill-palette-color="accent"></path></g></svg></g></svg></g></svg></g></svg></g></svg></g><defs></defs></svg><rect width="395.52" height="72.91029348410505" fill="none" stroke="none" visibility="hidden"></rect></g></svg></g></svg>